<svg width="28" height="28" viewBox="0 0 28 28" fill="none" xmlns="http://www.w3.org/2000/svg">
<path d="M23.5 9.5H10.25C10.0511 9.5 9.86032 9.57902 9.71967 9.71967C9.57902 9.86032 9.5 10.0511 9.5 10.25V17.25C9.5 17.664 9.836 18 10.25 18H17V23.5H4.5V4.5H23.5V9.5ZM23.5 23.5H18.5V17.25C18.5 17.0511 18.421 16.8603 18.2803 16.7197C18.1397 16.579 17.9489 16.5 17.75 16.5H11V11H23.5V23.5ZM25 23.75V4.25C25 3.561 24.439 3 23.75 3H4.25C3.561 3 3 3.561 3 4.25V23.75C3 24.439 3.561 25 4.25 25H23.75C24.439 25 25 24.439 25 23.75Z" fill="#8D8F93"/>
</svg>
