<svg width="28" height="28" viewBox="0 0 28 28" fill="none" xmlns="http://www.w3.org/2000/svg">
<path d="M25.5 14C25.5 7.649 20.351 2.5 14 2.5C7.649 2.5 2.5 7.649 2.5 14C2.5 20.351 7.649 25.5 14 25.5C20.351 25.5 25.5 20.351 25.5 14ZM27 14C27 21.18 21.18 27 14 27C6.82 27 1 21.18 1 14C1 6.82 6.82 1 14 1C21.18 1 27 6.82 27 14ZM7.479 14H7.631C7.933 14 8.102 14.338 7.934 14.591C7.334 15.491 6.983 16.568 6.983 17.724V18.221C6.983 18.342 6.99 18.461 7.004 18.578C7.03 18.802 6.862 19 6.637 19H6.123C5.228 19 4.5 18.25 4.5 17.327C4.5 15.492 5.727 14 7.479 14ZM20.521 14C22.274 14 23.5 15.492 23.5 17.327C23.5 18.25 22.772 19 21.878 19H21.364C21.139 19 20.97 18.802 20.997 18.578C21.01 18.461 21.017 18.342 21.017 18.221V17.724C21.017 16.568 20.667 15.491 20.067 14.591C19.899 14.338 20.067 14 20.369 14H20.521ZM8.25 13C7.147 13 6.25 11.991 6.25 10.75C6.25 9.384 7.035 8.5 8.25 8.5C9.465 8.5 10.25 9.384 10.25 10.75C10.25 11.991 9.353 13 8.25 13ZM19.75 13C18.647 13 17.75 11.991 17.75 10.75C17.75 9.384 18.535 8.5 19.75 8.5C20.965 8.5 21.75 9.384 21.75 10.75C21.75 11.991 20.853 13 19.75 13ZM15.172 13.5C17.558 13.5 19.5 15.395 19.5 17.724V18.221C19.5 19.202 18.683 20 17.677 20H10.323C9.317 20 8.5 19.202 8.5 18.221V17.724C8.5 15.395 10.441 13.5 12.828 13.5H15.172ZM16.75 9C16.75 10.655 15.517 12 14 12C12.484 12 11.25 10.655 11.25 9C11.25 7.15 12.304 6 14 6C15.697 6 16.75 7.15 16.75 9Z" fill="#8D8F93"/>
</svg>
