<svg width="28" height="28" viewBox="0 0 28 28" fill="none" xmlns="http://www.w3.org/2000/svg">
<path d="M23.5 4C23.697 4 23.892 4.0388 24.074 4.11418C24.256 4.18956 24.4214 4.30005 24.5607 4.43934C24.6999 4.57863 24.8104 4.74399 24.8858 4.92597C24.9612 5.10796 25 5.30302 25 5.5C25 5.69698 24.9612 5.89204 24.8858 6.07403C24.8104 6.25601 24.6999 6.42137 24.5607 6.56066C24.4214 6.69995 24.256 6.81044 24.074 6.88582C23.892 6.9612 23.697 7 23.5 7H4.5C4.30302 7 4.10796 6.9612 3.92597 6.88582C3.74399 6.81044 3.57863 6.69995 3.43934 6.56066C3.30005 6.42137 3.18956 6.25601 3.11418 6.07403C3.0388 5.89204 3 5.69698 3 5.5C3 5.30302 3.0388 5.10796 3.11418 4.92597C3.18956 4.74399 3.30005 4.57863 3.43934 4.43934C3.57863 4.30005 3.74399 4.18956 3.92597 4.11418C4.10796 4.0388 4.30302 4 4.5 4H23.5ZM23.5 22C23.697 22 23.892 22.0388 24.074 22.1142C24.256 22.1896 24.4214 22.3001 24.5607 22.4393C24.6999 22.5786 24.8104 22.744 24.8858 22.926C24.9612 23.108 25 23.303 25 23.5C25 23.697 24.9612 23.892 24.8858 24.074C24.8104 24.256 24.6999 24.4214 24.5607 24.5607C24.4214 24.6999 24.256 24.8104 24.074 24.8858C23.892 24.9612 23.697 25 23.5 25H4.5C4.30302 25 4.10796 24.9612 3.92597 24.8858C3.74399 24.8104 3.57863 24.6999 3.43934 24.5607C3.30005 24.4214 3.18956 24.256 3.11418 24.074C3.0388 23.892 3 23.697 3 23.5C3 23.303 3.0388 23.108 3.11418 22.926C3.18956 22.744 3.30005 22.5786 3.43934 22.4393C3.57863 22.3001 3.74399 22.1896 3.92597 22.1142C4.10796 22.0388 4.30302 22 4.5 22H23.5ZM23.5 13C23.8978 13 24.2794 13.158 24.5607 13.4393C24.842 13.7206 25 14.1022 25 14.5C25 14.8978 24.842 15.2794 24.5607 15.5607C24.2794 15.842 23.8978 16 23.5 16H4.5C4.10218 16 3.72064 15.842 3.43934 15.5607C3.15804 15.2794 3 14.8978 3 14.5C3 14.1022 3.15804 13.7206 3.43934 13.4393C3.72064 13.158 4.10218 13 4.5 13H23.5Z" fill="#8D8F93"/>
</svg>
