<svg width="28" height="28" viewBox="0 0 28 28" fill="none" xmlns="http://www.w3.org/2000/svg">
<path d="M25.825 12.29C25.825 12.29 25.823 12.288 25.821 12.286L15.027 2.937C14.752 2.675 14.392 2.527 13.989 2.521C13.608 2.527 13.248 2.675 13.001 2.912L2.17499 12.29C1.75599 12.658 1.62899 13.245 1.86799 13.759C2.07899 14.215 2.56699 14.479 3.06899 14.479H4.99999V23.729C4.99999 24.695 5.78399 25.479 6.74999 25.479H11C11.552 25.479 12 25.031 12 24.479V18.309C12 18.126 12.148 17.979 12.33 17.979H15.67C15.852 17.979 16 18.126 16 18.309V24.479C16 25.031 16.448 25.479 17 25.479H21.25C22.217 25.479 23 24.695 23 23.729V14.479H24.931C25.433 14.479 25.921 14.215 26.132 13.759C26.371 13.245 26.244 12.658 25.825 12.29Z" fill="#8D8F93"/>
</svg>
