<svg width="40" height="40" viewBox="0 0 40 40" fill="none" xmlns="http://www.w3.org/2000/svg">
<circle cx="20" cy="20" r="20" fill="url(#paint0_linear_6_5)"/>
<path d="M31.706 13.185C30.871 13.555 29.974 13.805 29.031 13.918C29.993 13.342 30.731 12.428 31.079 11.34C30.179 11.874 29.182 12.262 28.121 12.47C27.271 11.566 26.061 11 24.721 11C22.149 11 20.063 13.086 20.063 15.66C20.063 16.024 20.105 16.378 20.183 16.72C16.31 16.525 12.879 14.67 10.581 11.852C10.181 12.542 9.951 13.342 9.951 14.194C9.951 15.81 10.774 17.237 12.023 18.072C11.259 18.047 10.541 17.838 9.913 17.489V17.549C9.913 19.806 11.518 21.689 13.65 22.117C13.258 22.223 12.847 22.279 12.423 22.279C12.123 22.279 11.83 22.251 11.546 22.197C12.139 24.047 13.859 25.395 15.898 25.431C14.303 26.681 12.294 27.426 10.112 27.426C9.736 27.426 9.365 27.404 9 27.361C11.062 28.684 13.51 29.454 16.14 29.454C24.71 29.454 29.395 22.356 29.395 16.2C29.395 16 29.39 15.798 29.381 15.598C30.291 14.94 31.081 14.121 31.704 13.188L31.706 13.185Z" fill="white"/>
<defs>
<linearGradient id="paint0_linear_6_5" x1="20" y1="0" x2="20" y2="40" gradientUnits="userSpaceOnUse">
<stop stop-color="#00E08F"/>
<stop offset="1" stop-color="#004387"/>
</linearGradient>
</defs>
</svg>
