<svg width="17" height="17" viewBox="0 0 17 17" fill="none" xmlns="http://www.w3.org/2000/svg">
<path d="M2.70453 5.02272C3.98483 5.02272 5.02272 3.98483 5.02272 2.70453C5.02272 1.42424 3.98483 0.386353 2.70453 0.386353C1.42424 0.386353 0.386353 1.42424 0.386353 2.70453C0.386353 3.98483 1.42424 5.02272 2.70453 5.02272Z" fill="#E4E6EB"/>
<path d="M8.50001 5.02272C9.7803 5.02272 10.8182 3.98483 10.8182 2.70453C10.8182 1.42424 9.7803 0.386353 8.50001 0.386353C7.21971 0.386353 6.18182 1.42424 6.18182 2.70453C6.18182 3.98483 7.21971 5.02272 8.50001 5.02272Z" fill="#E4E6EB"/>
<path d="M14.2955 5.02272C15.5758 5.02272 16.6137 3.98483 16.6137 2.70453C16.6137 1.42424 15.5758 0.386353 14.2955 0.386353C13.0152 0.386353 11.9773 1.42424 11.9773 2.70453C11.9773 3.98483 13.0152 5.02272 14.2955 5.02272Z" fill="#E4E6EB"/>
<path d="M2.70453 10.8182C3.98483 10.8182 5.02272 9.7803 5.02272 8.50001C5.02272 7.21971 3.98483 6.18182 2.70453 6.18182C1.42424 6.18182 0.386353 7.21971 0.386353 8.50001C0.386353 9.7803 1.42424 10.8182 2.70453 10.8182Z" fill="#E4E6EB"/>
<path d="M8.50001 10.8182C9.7803 10.8182 10.8182 9.7803 10.8182 8.50001C10.8182 7.21971 9.7803 6.18182 8.50001 6.18182C7.21971 6.18182 6.18182 7.21971 6.18182 8.50001C6.18182 9.7803 7.21971 10.8182 8.50001 10.8182Z" fill="#E4E6EB"/>
<path d="M14.2955 10.8182C15.5758 10.8182 16.6137 9.7803 16.6137 8.50001C16.6137 7.21971 15.5758 6.18182 14.2955 6.18182C13.0152 6.18182 11.9773 7.21971 11.9773 8.50001C11.9773 9.7803 13.0152 10.8182 14.2955 10.8182Z" fill="#E4E6EB"/>
<path d="M2.70453 16.6136C3.98483 16.6136 5.02272 15.5757 5.02272 14.2954C5.02272 13.0151 3.98483 11.9773 2.70453 11.9773C1.42424 11.9773 0.386353 13.0151 0.386353 14.2954C0.386353 15.5757 1.42424 16.6136 2.70453 16.6136Z" fill="#E4E6EB"/>
<path d="M8.50001 16.6136C9.7803 16.6136 10.8182 15.5757 10.8182 14.2954C10.8182 13.0151 9.7803 11.9773 8.50001 11.9773C7.21971 11.9773 6.18182 13.0151 6.18182 14.2954C6.18182 15.5757 7.21971 16.6136 8.50001 16.6136Z" fill="#E4E6EB"/>
<path d="M14.2955 16.6136C15.5758 16.6136 16.6137 15.5757 16.6137 14.2954C16.6137 13.0151 15.5758 11.9773 14.2955 11.9773C13.0152 11.9773 11.9773 13.0151 11.9773 14.2954C11.9773 15.5757 13.0152 16.6136 14.2955 16.6136Z" fill="#E4E6EB"/>
</svg>
