<svg width="20" height="20" viewBox="0 0 20 20" fill="none" xmlns="http://www.w3.org/2000/svg">
<path d="M9.99998 1.45856C14.8285 1.45856 18.5714 4.9957 18.5714 9.77284C18.5714 14.55 14.8285 18.0871 9.99998 18.0871C9.16181 18.0891 8.32719 17.9783 7.51855 17.7578C7.36663 17.7159 7.20486 17.7277 7.06069 17.7914L5.35712 18.5421C5.25431 18.5874 5.14196 18.6068 5.02992 18.5985C4.91789 18.5903 4.80959 18.5547 4.71453 18.4948C4.61947 18.4349 4.54056 18.3526 4.48472 18.2552C4.42888 18.1577 4.39782 18.048 4.39426 17.9357L4.34783 16.4114C4.34468 16.3186 4.32267 16.2275 4.28312 16.1435C4.24358 16.0595 4.18734 15.9844 4.11783 15.9228C3.25784 15.1481 2.57308 14.1987 2.10932 13.1381C1.64556 12.0776 1.41346 10.9303 1.42855 9.77284C1.42855 4.9957 5.1714 1.45856 9.99998 1.45856ZM4.85283 12.2043C4.8019 12.285 4.78092 12.381 4.79356 12.4756C4.80621 12.5701 4.85167 12.6573 4.92202 12.7217C4.99236 12.7862 5.08312 12.8239 5.17844 12.8283C5.27376 12.8327 5.36759 12.8035 5.44355 12.7457L8.14783 10.6928C8.2372 10.6256 8.346 10.5893 8.45783 10.5893C8.56966 10.5893 8.67846 10.6256 8.76783 10.6928L10.7678 12.1928C10.9099 12.2991 11.0724 12.3747 11.2452 12.4151C11.4179 12.4554 11.5971 12.4596 11.7716 12.4273C11.946 12.3951 12.1119 12.3271 12.2587 12.2276C12.4056 12.1281 12.5303 11.9993 12.625 11.8493L15.1428 7.85499C15.1938 7.7743 15.2147 7.67828 15.2021 7.5837C15.1895 7.48912 15.144 7.40198 15.0737 7.33751C15.0033 7.27303 14.9126 7.23532 14.8172 7.23094C14.7219 7.22656 14.6281 7.2558 14.5521 7.31356L11.8478 9.36641C11.7585 9.43364 11.6497 9.46999 11.5378 9.46999C11.426 9.46999 11.3172 9.43364 11.2278 9.36641L9.22783 7.86641C9.08576 7.7602 8.92324 7.68453 8.75049 7.64417C8.57775 7.60381 8.39853 7.59964 8.2241 7.63191C8.04966 7.66418 7.8838 7.7322 7.73693 7.83168C7.59006 7.93117 7.46536 8.05997 7.37069 8.20999L4.85283 12.2043Z" fill="#E4E6EB"/>
</svg>
