<svg width="20" height="20" viewBox="0 0 20 20" fill="none" xmlns="http://www.w3.org/2000/svg">
<path d="M5.60502 16.7771C6.57645 16.7771 8.1736 16.6879 10.3336 16.29C9.96002 17.3057 8.98645 18.0336 7.84288 18.0336C6.89217 18.0336 6.05931 17.53 5.58931 16.7771H5.60502ZM17.8022 11.2357C17.9786 12.1443 17.3415 12.9479 15.9072 13.6257C15.1215 13.9964 13.3743 14.7021 10.4886 15.2636C8.26288 15.6957 6.63217 15.795 5.60574 15.795C5.30074 15.795 5.0486 15.7864 4.85002 15.775C3.26717 15.6843 2.37431 15.1771 2.19788 14.2686C1.93002 12.8921 2.3536 12.3607 3.05574 11.4807L3.24074 11.2486C3.71431 10.6479 3.89931 10.0579 3.59645 8.50143C2.9186 5.01572 4.4886 2.63358 7.90288 1.96643C11.3186 1.30715 13.6672 2.92572 14.345 6.41215C14.6472 7.96858 15.04 8.44572 15.7043 8.825V8.82572L15.9629 8.97215C16.9429 9.525 17.5343 9.85858 17.8022 11.2357Z" fill="#E4E6EB"/>
</svg>
