<svg width="19" height="19" viewBox="0 0 19 19" fill="none" xmlns="http://www.w3.org/2000/svg">
<path d="M12.7573 2.68016C14.0936 4.01631 14.8444 5.82858 14.8445 7.7183C14.8447 9.60802 14.0941 11.4204 12.7579 12.7567C11.4218 14.093 9.6095 14.8438 7.71978 14.8439C5.83006 14.844 4.0177 14.0934 2.68139 12.7573C1.34508 11.4211 0.594289 9.60886 0.594177 7.71914C0.594066 5.82942 1.34465 4.01706 2.6808 2.68075C4.01695 1.34444 5.82922 0.593648 7.71894 0.593536C9.60866 0.593425 11.421 1.34401 12.7573 2.68016V2.68016ZM11.4986 3.93891C10.4964 2.9366 9.13715 2.37344 7.71978 2.37333C6.30241 2.37322 4.94305 2.93616 3.94074 3.93831C2.93842 4.94047 2.37527 6.29974 2.37516 7.71711C2.37505 9.13448 2.93799 10.4938 3.94014 11.4962C4.94623 12.4785 6.29895 13.0246 7.70503 13.0163C9.11112 13.0079 10.4572 12.4457 11.4516 11.4515C12.4459 10.4573 13.0084 9.11131 13.0169 7.70522C13.0255 6.29914 12.4795 4.94634 11.4974 3.94009L11.4986 3.93891Z" fill="#8D8F93"/>
<path d="M12.3382 10.3906C12.2457 10.555 12.1667 10.7265 12.1019 10.9036C11.9178 11.3988 11.8287 11.9118 11.8976 12.4284C11.9629 12.9212 12.1731 13.3712 12.5389 13.7382C12.7002 13.9001 12.9177 13.9938 13.1463 13.9999C13.3748 14.0059 13.5969 13.9238 13.7666 13.7706C13.9363 13.6174 14.0406 13.4048 14.0578 13.1768C14.0751 12.9488 14.004 12.723 13.8594 12.5459L13.7988 12.4782C13.7217 12.402 13.6738 12.3012 13.6634 12.1932C13.6385 12.0092 13.6801 11.7705 13.7703 11.5247C13.8071 11.4285 13.8416 11.3525 13.8653 11.3086L13.8796 11.2824C13.9382 11.1811 13.9763 11.0693 13.9917 10.9533C14.0071 10.8373 13.9995 10.7194 13.9694 10.6063C13.9392 10.4932 13.8871 10.3872 13.8159 10.2942C13.7448 10.2013 13.6561 10.1233 13.5548 10.0647C13.4535 10.006 13.3416 9.9679 13.2256 9.95249C13.1096 9.93708 12.9917 9.94467 12.8786 9.97483C12.7655 10.005 12.6595 10.0571 12.5666 10.1283C12.4736 10.1994 12.3956 10.2881 12.337 10.3894L12.3382 10.3906Z" fill="#8D8F93"/>
<path d="M11.349 13.845C11.3941 13.8237 11.4558 13.7975 11.5271 13.769C11.7729 13.6776 12.0116 13.636 12.1945 13.6598C12.2895 13.6717 12.3643 13.7002 12.4296 13.7512L12.4783 13.794C12.6471 13.9513 12.8704 14.0369 13.1011 14.0329C13.3319 14.0288 13.552 13.9353 13.7152 13.7722C13.8784 13.609 13.9718 13.3888 13.9759 13.1581C13.98 12.9274 13.8943 12.7041 13.737 12.5352C13.3844 12.181 12.9233 11.9552 12.4272 11.894C11.9106 11.8251 11.3976 11.9154 10.9025 12.1018C10.678 12.1849 10.5035 12.2716 10.3883 12.3393C10.1976 12.451 10.0553 12.6297 9.98897 12.8405C9.92266 13.0513 9.93711 13.2793 10.0295 13.48C10.1219 13.6808 10.2856 13.84 10.4889 13.9268C10.6921 14.0136 10.9204 14.0217 11.1293 13.9495L11.2076 13.9175L11.3501 13.845H11.349Z" fill="#8D8F93"/>
<path d="M15.9873 17.9811L15.9398 17.9289L11.6957 12.9509C10.9844 12.116 12.1173 10.9844 12.9521 11.6957L17.9289 15.9398L17.9811 15.9873C18.05 16.0574 18.126 16.15 18.1973 16.2723C18.493 16.777 18.493 17.4123 18.0144 17.9467L17.9467 18.0144C17.4123 18.4929 16.7758 18.4929 16.2711 18.1972C16.1673 18.1376 16.0715 18.065 15.9861 17.9811H15.9873ZM16.72 17.2496L17.2473 16.7224C17.2252 16.6986 17.2 16.6778 17.1725 16.6606C17.062 16.5953 16.8601 16.5953 16.7568 16.6891L17.0038 16.9646L17.2496 16.72L17.2568 16.7283L16.9955 17.0335L16.9646 17.005L17.0038 16.9646L17.0335 16.9967L16.7283 17.2579L16.72 17.2496V17.2496ZM16.688 16.7568C16.5953 16.8613 16.5953 17.062 16.6606 17.1724C16.6775 17.1999 16.6978 17.225 16.7212 17.2472L16.9646 17.005L16.688 16.7568Z" fill="#8D8F93"/>
</svg>
